<svg width="224" height="132" viewBox="0 0 224 132" fill="none" xmlns="http://www.w3.org/2000/svg">
<path d="M16.0008 85.8V117H26.0408C34.5608 117 40.4808 112.16 40.4808 101.04C40.4808 90.56 35.0808 85.8 26.4408 85.8H16.0008ZM23.2008 111.8V91H25.6808C30.4008 91 33.1208 93.96 33.1208 101.4C33.1208 109 30.4008 111.8 26.4408 111.8H23.2008ZM54.4577 93.8C48.1377 93.8 43.2977 97.4 43.2977 105.92C43.2977 113.84 48.2577 117.4 54.4577 117.4C60.7777 117.4 65.6177 113.8 65.6177 105.28C65.6177 97.36 60.6577 93.8 54.4577 93.8ZM54.4577 112.4C51.4977 112.4 50.2977 109.4 50.2977 105.68C50.2977 100.92 51.6577 98.8 54.4577 98.8C57.4177 98.8 58.6177 101.8 58.6177 105.52C58.6177 110.24 57.2577 112.4 54.4577 112.4ZM70.0242 85.8V117H80.0642C88.5842 117 94.5042 112.16 94.5042 101.04C94.5042 90.56 89.1042 85.8 80.4642 85.8H70.0242ZM77.2242 111.8V91H79.7042C84.4242 91 87.1442 93.96 87.1442 101.4C87.1442 109 84.4242 111.8 80.4642 111.8H77.2242ZM108.481 93.8C102.161 93.8 97.3211 97.4 97.3211 105.92C97.3211 113.84 102.281 117.4 108.481 117.4C114.801 117.4 119.641 113.8 119.641 105.28C119.641 97.36 114.681 93.8 108.481 93.8ZM108.481 112.4C105.521 112.4 104.321 109.4 104.321 105.68C104.321 100.92 105.681 98.8 108.481 98.8C111.441 98.8 112.641 101.8 112.641 105.52C112.641 110.24 111.281 112.4 108.481 112.4Z" fill="#4F4E4E"/>
<path d="M144.528 85.8L141.608 98.16C140.888 101.24 140.248 105.72 140.088 108.76H139.688C139.488 105.72 138.808 101.32 138.008 98.12L135.008 85.8H124.048V117H130.648V104.8C130.648 100.44 130.568 96.24 130.248 92H130.648L136.728 117H142.608L148.568 92H148.968C148.608 96.28 148.528 100.52 148.528 104.8V117H155.128V85.8H144.528ZM170.669 93.8C164.349 93.8 159.509 97.4 159.509 105.92C159.509 113.84 164.469 117.4 170.669 117.4C176.989 117.4 181.829 113.8 181.829 105.28C181.829 97.36 176.869 93.8 170.669 93.8ZM170.669 112.4C167.709 112.4 166.509 109.4 166.509 105.68C166.509 100.92 167.869 98.8 170.669 98.8C173.629 98.8 174.829 101.8 174.829 105.52C174.829 110.24 173.469 112.4 170.669 112.4ZM202.795 85.8H191.395L183.435 117H190.275L192.035 109.68H201.595L203.395 117H210.795L202.795 85.8ZM200.235 104.08H193.395L195.835 94.2C196.195 92.8 196.515 91.36 196.755 89.92H196.955C197.155 91.36 197.475 92.8 197.835 94.2L200.235 104.08Z" fill="#F2B13D"/>
<rect x="142.059" width="18.6795" height="65" fill="#D9D9D9"/>
<path d="M141.588 0H160.783V64.8502H141.588V0Z" fill="#838383"/>
<rect x="141.588" y="3.4866" width="19.1959" height="4.18388" fill="#F2B13D"/>
<rect x="141.588" y="55.7851" width="19.1959" height="4.8812" fill="#F2B13D"/>
<rect x="116.863" width="18.6795" height="65" fill="#D9D9D9"/>
<path d="M116.392 0H135.588V64.8502H116.392V0Z" fill="#838383"/>
<rect x="116.392" y="3.4866" width="19.1959" height="4.18388" fill="#F2B13D"/>
<rect x="116.392" y="55.7851" width="19.1959" height="4.8812" fill="#F2B13D"/>
<rect x="91.6674" width="18.6795" height="65" fill="#D9D9D9"/>
<path d="M91.1959 0H110.392V64.8502H91.1959V0Z" fill="#838383"/>
<rect x="91.1959" y="3.4866" width="19.1959" height="4.18388" fill="#F2B13D"/>
<rect x="91.1959" y="55.7851" width="19.1959" height="4.8812" fill="#F2B13D"/>
<rect x="66.4715" width="18.6795" height="65" fill="#D9D9D9"/>
<path d="M66 0H85.1959V64.8502H66V0Z" fill="#838383"/>
<rect x="66" y="3.4866" width="19.1959" height="4.18388" fill="#F2B13D"/>
<rect x="66" y="55.7851" width="19.1959" height="4.8812" fill="#F2B13D"/>
</svg>
