<svg width="58" height="58" viewBox="0 0 58 58" fill="none" xmlns="http://www.w3.org/2000/svg">
<rect width="58" height="58" rx="13" fill="white"/>
<path d="M24.1995 25.74V7.82H26.7595V13.86H28.9795V16.18H26.7595V25.74H24.1995ZM22.8595 8.76V11H20.5195V19.88H21.0795C21.3995 19.88 21.7595 19.8667 22.1595 19.84C22.5729 19.8 23.0195 19.74 23.4995 19.66V21.84C23.1262 21.9467 22.7195 22.0267 22.2795 22.08C21.8529 22.12 21.4262 22.14 20.9995 22.14H17.9595V8.76H22.8595ZM17.3195 8.76V11H14.9595V19.88H15.2395C15.5462 19.88 15.8795 19.8733 16.2395 19.86C16.5995 19.8467 16.9995 19.8067 17.4395 19.74V21.92C17.0929 22 16.7195 22.06 16.3195 22.1C15.9329 22.1267 15.5462 22.14 15.1595 22.14H12.3995V8.76H17.3195ZM16.6195 34.54H26.4195V36.74H16.6195V37.82H26.8795V40.08H13.9395V31.26H26.5795V33.5H16.6195V34.54ZM21.6195 43.7V48.74H18.8995V43.7H11.9995V41.46H28.5195V43.7H21.6195Z" fill="#4FC276"/>
<path d="M37.74 19.3C39.8867 19.3 41.54 19.6 42.7 20.2C43.86 20.8 44.44 21.6533 44.44 22.76C44.44 23.8667 43.86 24.72 42.7 25.32C41.54 25.92 39.8867 26.22 37.74 26.22C35.5933 26.22 33.94 25.92 32.78 25.32C31.62 24.72 31.04 23.8667 31.04 22.76C31.04 21.6533 31.62 20.8 32.78 20.2C33.94 19.6 35.5933 19.3 37.74 19.3ZM37.74 24.06C39.1267 24.06 40.12 23.94 40.72 23.7C41.3333 23.4733 41.64 23.16 41.64 22.76C41.64 22.36 41.3333 22.0467 40.72 21.82C40.12 21.58 39.1267 21.46 37.74 21.46C36.3533 21.46 35.3533 21.58 34.74 21.82C34.14 22.0467 33.84 22.36 33.84 22.76C33.84 23.16 34.14 23.4733 34.74 23.7C35.3533 23.94 36.3533 24.06 37.74 24.06ZM31.42 15.5V10.8H41.38V10.1H31.42V8.06H44.06V12.68H34.1V13.44H44.36V15.5H31.42ZM29.48 18.52V16.48H46V18.52H29.48ZM35.08 45.66C33.5867 45.66 32.4 45.0533 31.52 43.84C30.64 42.6267 30.2 40.8467 30.2 38.5C30.2 36.1533 30.64 34.3733 31.52 33.16C32.4 31.9467 33.5867 31.34 35.08 31.34C36.4133 31.34 37.5 31.82 38.34 32.78C39.18 33.7267 39.6933 35.1267 39.88 36.98H42.16V30.82H44.84V48.74H42.16V39.26H39.94C39.8333 41.3667 39.3467 42.96 38.48 44.04C37.6267 45.12 36.4933 45.66 35.08 45.66ZM35.08 33.62C34.3867 33.62 33.8467 34.02 33.46 34.82C33.0733 35.6067 32.88 36.8333 32.88 38.5C32.88 40.1667 33.0733 41.4 33.46 42.2C33.8467 42.9867 34.3867 43.38 35.08 43.38C35.7733 43.38 36.3133 42.9867 36.7 42.2C37.0867 41.4 37.28 40.1667 37.28 38.5C37.28 36.8333 37.0867 35.6067 36.7 34.82C36.3133 34.02 35.7733 33.62 35.08 33.62Z" fill="#474863"/>
</svg>
