<svg width="60" height="61" viewBox="0 0 60 61" fill="none" xmlns="http://www.w3.org/2000/svg">
<g clip-path="url(#clip0_51_1344)" filter="url(#filter0_d_51_1344)">
<g filter="url(#filter1_d_51_1344)">
<path d="M42.5 27.5V12.5C42.5 9.75 40.25 7.5 37.5 7.5H22.5C19.75 7.5 17.5 9.75 17.5 12.5V17.5H12.5C9.75 17.5 7.5 19.75 7.5 22.5V47.5C7.5 50.25 9.75 52.5 12.5 52.5H25C26.375 52.5 27.5 51.375 27.5 50V42.5H32.5V50C32.5 51.375 33.625 52.5 35 52.5H47.5C50.25 52.5 52.5 50.25 52.5 47.5V32.5C52.5 29.75 50.25 27.5 47.5 27.5H42.5ZM17.5 47.5H12.5V42.5H17.5V47.5ZM17.5 37.5H12.5V32.5H17.5V37.5ZM17.5 27.5H12.5V22.5H17.5V27.5ZM27.5 37.5H22.5V32.5H27.5V37.5ZM27.5 27.5H22.5V22.5H27.5V27.5ZM27.5 17.5H22.5V12.5H27.5V17.5ZM37.5 37.5H32.5V32.5H37.5V37.5ZM37.5 27.5H32.5V22.5H37.5V27.5ZM37.5 17.5H32.5V12.5H37.5V17.5ZM47.5 47.5H42.5V42.5H47.5V47.5ZM47.5 37.5H42.5V32.5H47.5V37.5Z" fill="#6B6B6B" fill-opacity="0.72"/>
</g>
</g>
<defs>
<filter id="filter0_d_51_1344" x="-4" y="0" width="68" height="68" filterUnits="userSpaceOnUse" color-interpolation-filters="sRGB">
<feFlood flood-opacity="0" result="BackgroundImageFix"/>
<feColorMatrix in="SourceAlpha" type="matrix" values="0 0 0 0 0 0 0 0 0 0 0 0 0 0 0 0 0 0 127 0" result="hardAlpha"/>
<feOffset dy="4"/>
<feGaussianBlur stdDeviation="2"/>
<feComposite in2="hardAlpha" operator="out"/>
<feColorMatrix type="matrix" values="0 0 0 0 0 0 0 0 0 0 0 0 0 0 0 0 0 0 0.25 0"/>
<feBlend mode="normal" in2="BackgroundImageFix" result="effect1_dropShadow_51_1344"/>
<feBlend mode="normal" in="SourceGraphic" in2="effect1_dropShadow_51_1344" result="shape"/>
</filter>
<filter id="filter1_d_51_1344" x="2.5" y="7.5" width="55" height="55" filterUnits="userSpaceOnUse" color-interpolation-filters="sRGB">
<feFlood flood-opacity="0" result="BackgroundImageFix"/>
<feColorMatrix in="SourceAlpha" type="matrix" values="0 0 0 0 0 0 0 0 0 0 0 0 0 0 0 0 0 0 127 0" result="hardAlpha"/>
<feOffset dy="5"/>
<feGaussianBlur stdDeviation="2.5"/>
<feComposite in2="hardAlpha" operator="out"/>
<feColorMatrix type="matrix" values="0 0 0 0 0 0 0 0 0 0 0 0 0 0 0 0 0 0 0.25 0"/>
<feBlend mode="normal" in2="BackgroundImageFix" result="effect1_dropShadow_51_1344"/>
<feBlend mode="normal" in="SourceGraphic" in2="effect1_dropShadow_51_1344" result="shape"/>
</filter>
<clipPath id="clip0_51_1344">
<rect width="60" height="60" fill="white"/>
</clipPath>
</defs>
</svg>
