<svg width="26" height="26" viewBox="0 0 26 26" fill="none" xmlns="http://www.w3.org/2000/svg">
<rect width="26" height="26" rx="5" fill="#DFDFDD" fill-opacity="0.2"/>
<path d="M19.18 11L17.48 6.32C17.19 5.53 16.44 5 15.6 5H14C13.45 5 13 5.45 13 6C13 6.55 13.45 7 14 7H15.6L17.06 11H12.25L11.89 10H11.98C12.53 10 12.98 9.55 12.98 9C12.98 8.45 12.53 8 11.98 8H9C8.45 8 8 8.45 8 9C8 9.55 8.45 10 9 10H9.75L11.57 15H10.9C10.46 12.77 8.59 11.12 6.25 11.01C3.45 10.87 1 13.2 1 16C1 18.8 3.2 21 6 21C8.46 21 10.45 19.31 10.9 17H15.1C15.54 19.23 17.41 20.88 19.75 20.99C22.55 21.12 25 18.8 25 15.99C25 13.19 22.8 10.99 20 10.99H19.18V11ZM8.82 17C8.4 18.23 7.22 19.08 5.8 18.99C4.31 18.9 3.07 17.64 3 16.14C2.93 14.39 4.27 13 6 13C7.33 13 8.42 13.83 8.82 15H7C6.45 15 6 15.45 6 16C6 16.55 6.45 17 7 17H8.82ZM15.1 15H13.7L12.97 13H16C15.56 13.58 15.24 14.25 15.1 15ZM19.88 19C18.34 18.94 17.04 17.63 17 16.08C16.98 15.12 17.39 14.28 18.05 13.72L18.67 15.42C18.86 15.94 19.43 16.21 19.95 16.02C20.47 15.83 20.74 15.26 20.55 14.74L19.92 13.01C19.92 13.01 19.92 13.01 19.93 13C21.65 12.96 23.01 14.29 23.01 16C23 17.72 21.62 19.06 19.88 19Z" fill="#F3DB03"/>
</svg>
