<svg width="26" height="27" viewBox="0 0 26 27" fill="none" xmlns="http://www.w3.org/2000/svg">
<path d="M5 17.5C5 18.38 5.39 19.17 6 19.72V21C6 21.83 6.67 22.5 7.5 22.5C8.33 22.5 9 21.83 9 21V20.5H17V21C17 21.82 17.67 22.5 18.5 22.5C19.32 22.5 20 21.83 20 21V19.72C20.61 19.17 21 18.38 21 17.5V7.5C21 4 17.42 3.5 13 3.5C8.58 3.5 5 4 5 7.5V17.5ZM8.5 18.5C7.67 18.5 7 17.83 7 17C7 16.17 7.67 15.5 8.5 15.5C9.33 15.5 10 16.17 10 17C10 17.83 9.33 18.5 8.5 18.5ZM17.5 18.5C16.67 18.5 16 17.83 16 17C16 16.17 16.67 15.5 17.5 15.5C18.33 15.5 19 16.17 19 17C19 17.83 18.33 18.5 17.5 18.5ZM19 12.5H7V7.5H19V12.5Z" fill="#C60ABE"/>
<rect y="0.5" width="26" height="26" rx="5" fill="#DFDFDD" fill-opacity="0.2"/>
</svg>
