<svg width="30" height="30" viewBox="0 0 30 30" fill="none" xmlns="http://www.w3.org/2000/svg">
<path d="M0 5C0 2.23858 2.23858 0 5 0H25C27.7614 0 30 2.23858 30 5V25C30 27.7614 27.7614 30 25 30H5C2.23858 30 0 27.7614 0 25V5Z" fill="#DFDFDD" fill-opacity="0.2"/>
<path d="M8.1 21.22V21.1755L8.06696 21.1457C7.47644 20.6133 7.1 19.8497 7.1 19V9C7.1 8.14294 7.31879 7.47747 7.70841 6.95847C8.09877 6.4385 8.66677 6.05737 9.37872 5.78071C10.8068 5.22577 12.7893 5.1 15 5.1C17.2107 5.1 19.1932 5.22577 20.6213 5.78071C21.3332 6.05737 21.9012 6.4385 22.2916 6.95847C22.6812 7.47747 22.9 8.14294 22.9 9V19C22.9 19.8497 22.5236 20.6133 21.933 21.1457L21.9 21.1755V21.22V22.5C21.9 23.2743 21.2652 23.9 20.5 23.9C19.7257 23.9 19.1 23.2652 19.1 22.5V22V21.9H19H11H10.9V22V22.5C10.9 23.2748 10.2748 23.9 9.5 23.9C8.72523 23.9 8.1 23.2748 8.1 22.5V21.22ZM21 14.1H21.1V14V9V8.9H21H9H8.9V9V14V14.1H9H21ZM8.9 18.5C8.9 19.3852 9.61477 20.1 10.5 20.1C11.3852 20.1 12.1 19.3852 12.1 18.5C12.1 17.6148 11.3852 16.9 10.5 16.9C9.61477 16.9 8.9 17.6148 8.9 18.5ZM17.9 18.5C17.9 19.3852 18.6148 20.1 19.5 20.1C20.3852 20.1 21.1 19.3852 21.1 18.5C21.1 17.6148 20.3852 16.9 19.5 16.9C18.6148 16.9 17.9 17.6148 17.9 18.5Z" fill="#C60ABE" stroke="black" stroke-width="0.2"/>
</svg>
