<svg width="30" height="30" viewBox="0 0 30 30" fill="none" xmlns="http://www.w3.org/2000/svg">
<rect width="30" height="30" rx="5" fill="#252525"/>
<path d="M7 20C7 20.88 7.39 21.67 8 22.22V23.5C8 24.33 8.67 25 9.5 25C10.33 25 11 24.33 11 23.5V23H19V23.5C19 24.32 19.67 25 20.5 25C21.32 25 22 24.33 22 23.5V22.22C22.61 21.67 23 20.88 23 20V10C23 6.5 19.42 6 15 6C10.58 6 7 6.5 7 10V20ZM10.5 21C9.67 21 9 20.33 9 19.5C9 18.67 9.67 18 10.5 18C11.33 18 12 18.67 12 19.5C12 20.33 11.33 21 10.5 21ZM19.5 21C18.67 21 18 20.33 18 19.5C18 18.67 18.67 18 19.5 18C20.33 18 21 18.67 21 19.5C21 20.33 20.33 21 19.5 21ZM21 15H9V10H21V15Z" fill="#C60ABE"/>
</svg>
