<svg width="26" height="27" viewBox="0 0 26 27" fill="none" xmlns="http://www.w3.org/2000/svg">
<rect y="0.5" width="26" height="26" rx="5" fill="#DFDFDD" fill-opacity="0.2"/>
<path d="M9.5 18.5C10.0523 18.5 10.5 18.0523 10.5 17.5C10.5 16.9477 10.0523 16.5 9.5 16.5C8.94772 16.5 8.5 16.9477 8.5 17.5C8.5 18.0523 8.94772 18.5 9.5 18.5Z" fill="#F3033D"/>
<path d="M16.5 18.5C17.0523 18.5 17.5 18.0523 17.5 17.5C17.5 16.9477 17.0523 16.5 16.5 16.5C15.9477 16.5 15.5 16.9477 15.5 17.5C15.5 18.0523 15.9477 18.5 16.5 18.5Z" fill="#F3033D"/>
<path d="M8.01 10.5H18.01V15.5H8.01V10.5ZM18.8 4.3C17 3.59 14.86 3.5 13 3.5C11.14 3.5 9 3.59 7.2 4.3C4.53 5.34 3 7.55 3 10.36V23.5H23V10.36C23 7.55 21.47 5.34 18.8 4.3ZM19 17C19 18.54 17.84 19.79 16.35 19.96L17.5 21.12V21.5H15.83L14.33 20H11.67L10.17 21.5H8.5V21.12L9.65 19.96C8.16 19.79 7 18.54 7 17V10.5C7 7.87 10 7.5 13 7.5C16 7.5 19 7.87 19 10.5V17Z" fill="#F3033D"/>
</svg>
