<svg width="30" height="30" viewBox="0 0 30 30" fill="none" xmlns="http://www.w3.org/2000/svg">
<rect width="30" height="30" rx="5" fill="#DFDFDD" fill-opacity="0.2"/>
<path d="M20.745 5.93954L20.7456 5.93977C23.3594 6.95788 24.85 9.11334 24.85 11.86V24.85H5.15V11.86C5.15 9.11334 6.64064 6.95788 9.25444 5.93977L9.25504 5.93954C11.026 5.241 13.1402 5.15 15 5.15C16.8598 5.15 18.974 5.241 20.745 5.93954ZM19.65 22.62V22.5582L19.6065 22.5144L18.6616 21.5613C20.0814 21.262 21.15 20.015 21.15 18.5V12C21.15 11.3118 20.9529 10.7612 20.6009 10.3272C20.2508 9.89563 19.7562 9.58993 19.1776 9.37327C18.0248 8.94163 16.5005 8.85 15 8.85C13.4995 8.85 11.9752 8.94163 10.8224 9.37327C10.2438 9.58993 9.74921 9.89563 9.39913 10.3272C9.04713 10.7612 8.85 11.3118 8.85 12V18.5C8.85 20.015 9.91862 21.262 11.3384 21.5613L10.3935 22.5144L10.35 22.5582V22.62V23V23.15H10.5H12.17H12.2321L12.2761 23.1061L13.7321 21.65H16.2679L17.7239 23.1061L17.7679 23.15H17.83H19.5H19.65V23V22.62ZM10.16 12.15H19.86V16.85H10.16V12.15Z" fill="#F3033D" stroke="black" stroke-width="0.3"/>
</svg>
