<svg width="941" height="324" viewBox="0 0 941 324" fill="none" xmlns="http://www.w3.org/2000/svg">
<rect width="941" height="324" fill="white"/>
<path d="M381.876 156.96V85.28H392.116V109.44H400.996V118.72H392.116V156.96H381.876ZM376.516 89.04V98H367.156V133.52H369.396C370.676 133.52 372.116 133.467 373.716 133.36C375.37 133.2 377.156 132.96 379.076 132.64V141.36C377.583 141.787 375.956 142.107 374.196 142.32C372.49 142.48 370.783 142.56 369.076 142.56H356.916V89.04H376.516ZM354.356 89.04V98H344.916V133.52H346.036C347.263 133.52 348.596 133.493 350.036 133.44C351.476 133.387 353.076 133.227 354.836 132.96V141.68C353.45 142 351.956 142.24 350.356 142.4C348.81 142.507 347.263 142.56 345.716 142.56H334.676V89.04H354.356ZM436.038 131.2C444.625 131.2 451.238 132.4 455.878 134.8C460.518 137.2 462.838 140.613 462.838 145.04C462.838 149.467 460.518 152.88 455.878 155.28C451.238 157.68 444.625 158.88 436.038 158.88C427.451 158.88 420.838 157.68 416.198 155.28C411.558 152.88 409.238 149.467 409.238 145.04C409.238 140.613 411.558 137.2 416.198 134.8C420.838 132.4 427.451 131.2 436.038 131.2ZM436.038 150.24C441.585 150.24 445.558 149.76 447.958 148.8C450.411 147.893 451.638 146.64 451.638 145.04C451.638 143.44 450.411 142.187 447.958 141.28C445.558 140.32 441.585 139.84 436.038 139.84C430.491 139.84 426.491 140.32 424.038 141.28C421.638 142.187 420.438 143.44 420.438 145.04C420.438 146.64 421.638 147.893 424.038 148.8C426.491 149.76 430.491 150.24 436.038 150.24ZM410.758 116V97.2H450.598V94.4H410.758V86.24H461.318V104.72H421.478V107.76H462.518V116H410.758ZM402.998 128.08V119.92H469.078V128.08H402.998ZM523.64 156.96V85.28H534.36V156.96H523.64ZM495.72 144.64C492.68 144.64 489.933 144.027 487.48 142.8C485.027 141.573 482.92 139.76 481.16 137.36C479.453 134.907 478.12 131.893 477.16 128.32C476.253 124.747 475.8 120.64 475.8 116C475.8 111.36 476.253 107.253 477.16 103.68C478.12 100.107 479.453 97.12 481.16 94.72C482.92 92.2667 485.027 90.4267 487.48 89.2C489.933 87.9733 492.68 87.36 495.72 87.36C498.76 87.36 501.507 87.9733 503.96 89.2C506.413 90.4267 508.493 92.2667 510.2 94.72C511.96 97.12 513.293 100.107 514.2 103.68C515.16 107.253 515.64 111.36 515.64 116C515.64 120.64 515.16 124.747 514.2 128.32C513.293 131.893 511.96 134.907 510.2 137.36C508.493 139.76 506.413 141.573 503.96 142.8C501.507 144.027 498.76 144.64 495.72 144.64ZM495.72 96.48C492.84 96.48 490.573 98.08 488.92 101.28C487.32 104.427 486.52 109.333 486.52 116C486.52 122.667 487.32 127.6 488.92 130.8C490.573 133.947 492.84 135.52 495.72 135.52C498.6 135.52 500.84 133.947 502.44 130.8C504.093 127.6 504.92 122.667 504.92 116C504.92 109.333 504.093 104.427 502.44 101.28C500.84 98.08 498.6 96.48 495.72 96.48ZM491.4 190.16H530.6V198.96H491.4V203.28H532.44V212.32H480.68V177.04H531.24V186H491.4V190.16ZM511.4 226.8V246.96H500.52V226.8H472.92V217.84H539V226.8H511.4ZM565.242 234.64C559.269 234.64 554.522 232.213 551.002 227.36C547.482 222.507 545.722 215.387 545.722 206C545.722 196.613 547.482 189.493 551.002 184.64C554.522 179.787 559.269 177.36 565.242 177.36C570.575 177.36 574.922 179.28 578.282 183.12C581.642 186.907 583.695 192.507 584.442 199.92H593.562V175.28H604.282V246.96H593.562V209.04H584.682C584.255 217.467 582.309 223.84 578.842 228.16C575.429 232.48 570.895 234.64 565.242 234.64ZM565.242 186.48C562.469 186.48 560.309 188.08 558.762 191.28C557.215 194.427 556.442 199.333 556.442 206C556.442 212.667 557.215 217.6 558.762 220.8C560.309 223.947 562.469 225.52 565.242 225.52C568.015 225.52 570.175 223.947 571.722 220.8C573.269 217.6 574.042 212.667 574.042 206C574.042 199.333 573.269 194.427 571.722 191.28C570.175 188.08 568.015 186.48 565.242 186.48Z" fill="#4FC276"/>
<path d="M542.842 150.08V140.96H570.762V130H550.602V104.32H590.442V96.96H550.602V87.84H601.162V113.28H561.322V120.8H602.362V130H581.802V140.96H608.922V150.08H542.842ZM351.556 191.92H392.196V200.88H372.036V206.96H399.156V215.92H333.076V206.96H360.996V200.88H340.836V176.56H390.996V185.52H351.556V191.92ZM366.116 219.6C374.703 219.6 381.316 220.88 385.956 223.44C390.596 225.947 392.916 229.547 392.916 234.24C392.916 238.933 390.596 242.533 385.956 245.04C381.316 247.6 374.703 248.88 366.116 248.88C357.53 248.88 350.916 247.6 346.276 245.04C341.636 242.533 339.316 238.933 339.316 234.24C339.316 229.547 341.636 225.947 346.276 223.44C350.916 220.88 357.53 219.6 366.116 219.6ZM366.116 239.92C371.663 239.92 375.636 239.413 378.036 238.4C380.49 237.387 381.716 236 381.716 234.24C381.716 232.48 380.49 231.093 378.036 230.08C375.636 229.067 371.663 228.56 366.116 228.56C360.57 228.56 356.57 229.067 354.116 230.08C351.716 231.093 350.516 232.48 350.516 234.24C350.516 236 351.716 237.387 354.116 238.4C356.57 239.413 360.57 239.92 366.116 239.92ZM427.718 197.44H440.358V176.08H450.598V245.12H440.358V206.56H427.718V197.44ZM455.318 246.88V175.28H465.718V246.88H455.318ZM417.238 178.72V223.04H418.278C420.838 223.04 423.611 222.987 426.598 222.88C429.638 222.72 432.758 222.427 435.958 222V230.8C433.345 231.333 430.491 231.707 427.398 231.92C424.358 232.08 421.318 232.16 418.278 232.16H406.838V178.72H417.238Z" fill="#191A3D" fill-opacity="0.8"/>
</svg>
