<svg width="58" height="58" viewBox="0 0 58 58" fill="none" xmlns="http://www.w3.org/2000/svg">
<rect x="0.5" y="0.5" width="57" height="57" rx="12.5" fill="white" stroke="#343348"/>
<path d="M24.6995 25.74V7.82H27.2595V13.86H29.4795V16.18H27.2595V25.74H24.6995ZM23.3595 8.76V11H21.0195V19.88H21.5795C21.8995 19.88 22.2595 19.8667 22.6595 19.84C23.0729 19.8 23.5195 19.74 23.9995 19.66V21.84C23.6262 21.9467 23.2195 22.0267 22.7795 22.08C22.3529 22.12 21.9262 22.14 21.4995 22.14H18.4595V8.76H23.3595ZM17.8195 8.76V11H15.4595V19.88H15.7395C16.0462 19.88 16.3795 19.8733 16.7395 19.86C17.0995 19.8467 17.4995 19.8067 17.9395 19.74V21.92C17.5929 22 17.2195 22.06 16.8195 22.1C16.4329 22.1267 16.0462 22.14 15.6595 22.14H12.8995V8.76H17.8195ZM17.1195 34.54H26.9195V36.74H17.1195V37.82H27.3795V40.08H14.4395V31.26H27.0795V33.5H17.1195V34.54ZM22.1195 43.7V48.74H19.3995V43.7H12.4995V41.46H29.0195V43.7H22.1195Z" fill="#4FC276"/>
<path d="M38.24 19.3C40.3867 19.3 42.04 19.6 43.2 20.2C44.36 20.8 44.94 21.6533 44.94 22.76C44.94 23.8667 44.36 24.72 43.2 25.32C42.04 25.92 40.3867 26.22 38.24 26.22C36.0933 26.22 34.44 25.92 33.28 25.32C32.12 24.72 31.54 23.8667 31.54 22.76C31.54 21.6533 32.12 20.8 33.28 20.2C34.44 19.6 36.0933 19.3 38.24 19.3ZM38.24 24.06C39.6267 24.06 40.62 23.94 41.22 23.7C41.8333 23.4733 42.14 23.16 42.14 22.76C42.14 22.36 41.8333 22.0467 41.22 21.82C40.62 21.58 39.6267 21.46 38.24 21.46C36.8533 21.46 35.8533 21.58 35.24 21.82C34.64 22.0467 34.34 22.36 34.34 22.76C34.34 23.16 34.64 23.4733 35.24 23.7C35.8533 23.94 36.8533 24.06 38.24 24.06ZM31.92 15.5V10.8H41.88V10.1H31.92V8.06H44.56V12.68H34.6V13.44H44.86V15.5H31.92ZM29.98 18.52V16.48H46.5V18.52H29.98ZM35.58 45.66C34.0867 45.66 32.9 45.0533 32.02 43.84C31.14 42.6267 30.7 40.8467 30.7 38.5C30.7 36.1533 31.14 34.3733 32.02 33.16C32.9 31.9467 34.0867 31.34 35.58 31.34C36.9133 31.34 38 31.82 38.84 32.78C39.68 33.7267 40.1933 35.1267 40.38 36.98H42.66V30.82H45.34V48.74H42.66V39.26H40.44C40.3333 41.3667 39.8467 42.96 38.98 44.04C38.1267 45.12 36.9933 45.66 35.58 45.66ZM35.58 33.62C34.8867 33.62 34.3467 34.02 33.96 34.82C33.5733 35.6067 33.38 36.8333 33.38 38.5C33.38 40.1667 33.5733 41.4 33.96 42.2C34.3467 42.9867 34.8867 43.38 35.58 43.38C36.2733 43.38 36.8133 42.9867 37.2 42.2C37.5867 41.4 37.78 40.1667 37.78 38.5C37.78 36.8333 37.5867 35.6067 37.2 34.82C36.8133 34.02 36.2733 33.62 35.58 33.62Z" fill="#474863"/>
</svg>
