<svg width="24" height="25" viewBox="0 0 24 25" fill="none" xmlns="http://www.w3.org/2000/svg">
<path d="M18.18 10.5L16.48 5.82C16.19 5.03 15.44 4.5 14.6 4.5H13C12.45 4.5 12 4.95 12 5.5C12 6.05 12.45 6.5 13 6.5H14.6L16.06 10.5H11.25L10.89 9.5H10.98C11.53 9.5 11.98 9.05 11.98 8.5C11.98 7.95 11.53 7.5 10.98 7.5H8C7.45 7.5 7 7.95 7 8.5C7 9.05 7.45 9.5 8 9.5H8.75L10.57 14.5H9.9C9.46 12.27 7.59 10.62 5.25 10.51C2.45 10.37 0 12.7 0 15.5C0 18.3 2.2 20.5 5 20.5C7.46 20.5 9.45 18.81 9.9 16.5H14.1C14.54 18.73 16.41 20.38 18.75 20.49C21.55 20.62 24 18.3 24 15.49C24 12.69 21.8 10.49 19 10.49H18.18V10.5ZM7.82 16.5C7.4 17.73 6.22 18.58 4.8 18.49C3.31 18.4 2.07 17.14 2 15.64C1.93 13.89 3.27 12.5 5 12.5C6.33 12.5 7.42 13.33 7.82 14.5H6C5.45 14.5 5 14.95 5 15.5C5 16.05 5.45 16.5 6 16.5H7.82ZM14.1 14.5H12.7L11.97 12.5H15C14.56 13.08 14.24 13.75 14.1 14.5ZM18.88 18.5C17.34 18.44 16.04 17.13 16 15.58C15.98 14.62 16.39 13.78 17.05 13.22L17.67 14.92C17.86 15.44 18.43 15.71 18.95 15.52C19.47 15.33 19.74 14.76 19.55 14.24L18.92 12.51C18.92 12.51 18.92 12.51 18.93 12.5C20.65 12.46 22.01 13.79 22.01 15.5C22 17.22 20.62 18.56 18.88 18.5Z" fill="#E5B560"/>
</svg>
