<svg width="35" height="35" viewBox="0 0 35 35" fill="none" xmlns="http://www.w3.org/2000/svg">
<path fill-rule="evenodd" clip-rule="evenodd" d="M13.8541 21.0417C9.88458 21.0417 6.66663 17.8237 6.66663 13.8542C6.66663 9.88463 9.88458 6.66667 13.8541 6.66667C17.8237 6.66667 21.0416 9.88463 21.0416 13.8542C21.0416 17.8237 17.8237 21.0417 13.8541 21.0417ZM2.91663 13.8542C2.91663 7.81356 7.81351 2.91667 13.8541 2.91667C19.8947 2.91667 24.7916 7.81356 24.7916 13.8542C24.7916 15.9563 24.1986 17.9199 23.1707 19.5868C24.1839 19.5431 25.2114 19.9081 25.985 20.6817L31.8183 26.515C33.2828 27.9795 33.2828 30.3538 31.8183 31.8183C30.3539 33.2828 27.9795 33.2828 26.515 31.8183L20.6817 25.985C19.9081 25.2114 19.5432 24.1839 19.5869 23.1707C17.9199 24.1986 15.9563 24.7917 13.8541 24.7917C7.81351 24.7917 2.91663 19.8948 2.91663 13.8542Z" fill="#DFDFDD"/>
</svg>
