<svg width="43" height="34" viewBox="0 0 43 34" fill="none" xmlns="http://www.w3.org/2000/svg">
<g filter="url(#filter0_f_103_2448)">
<circle cx="22" cy="17" r="15" fill="#474863"/>
</g>
<path d="M14.8698 16.63H20.2498V17.29H17.5698V19.65H21.1998V20.31H13.0598V19.65H16.7898V17.29H14.1098V12.81H20.0998V13.47H14.8698V16.63ZM26.85 14.01H24.87C24.8767 14.3033 24.94 14.5867 25.06 14.86C25.1867 15.1267 25.3533 15.38 25.56 15.62C25.7733 15.8533 26.02 16.0667 26.3 16.26C26.58 16.4533 26.88 16.6133 27.2 16.74L26.81 17.31C26.3033 17.0967 25.85 16.8167 25.45 16.47C25.0567 16.1167 24.7367 15.73 24.49 15.31C24.2767 15.7367 23.96 16.15 23.54 16.55C23.12 16.9433 22.6067 17.29 22 17.59L21.53 17.04C21.8967 16.8733 22.2333 16.6767 22.54 16.45C22.8467 16.2167 23.1133 15.9667 23.34 15.7C23.5667 15.4333 23.7433 15.1567 23.87 14.87C23.9967 14.5833 24.0633 14.2967 24.07 14.01H22.09V13.37H24.09V12.23H24.86V13.37H26.85V14.01ZM28.08 21.39V18.83H22.96V18.18H28.84V21.39H28.08ZM28.1 17.66V12.43H28.86V14.62H30.08V15.3H28.86V17.66H28.1Z" fill="#F4F4F4"/>
<path d="M14.8698 16.63H14.7698V16.73H14.8698V16.63ZM20.2498 16.63H20.3498V16.53H20.2498V16.63ZM20.2498 17.29V17.39H20.3498V17.29H20.2498ZM17.5698 17.29V17.19H17.4698V17.29H17.5698ZM17.5698 19.65H17.4698V19.75H17.5698V19.65ZM21.1998 19.65H21.2998V19.55H21.1998V19.65ZM21.1998 20.31V20.41H21.2998V20.31H21.1998ZM13.0598 20.31H12.9598V20.41H13.0598V20.31ZM13.0598 19.65V19.55H12.9598V19.65H13.0598ZM16.7898 19.65V19.75H16.8898V19.65H16.7898ZM16.7898 17.29H16.8898V17.19H16.7898V17.29ZM14.1098 17.29H14.0098V17.39H14.1098V17.29ZM14.1098 12.81V12.71H14.0098V12.81H14.1098ZM20.0998 12.81H20.1998V12.71H20.0998V12.81ZM20.0998 13.47V13.57H20.1998V13.47H20.0998ZM14.8698 13.47V13.37H14.7698V13.47H14.8698ZM14.8698 16.73H20.2498V16.53H14.8698V16.73ZM20.1498 16.63V17.29H20.3498V16.63H20.1498ZM20.2498 17.19H17.5698V17.39H20.2498V17.19ZM17.4698 17.29V19.65H17.6698V17.29H17.4698ZM17.5698 19.75H21.1998V19.55H17.5698V19.75ZM21.0998 19.65V20.31H21.2998V19.65H21.0998ZM21.1998 20.21H13.0598V20.41H21.1998V20.21ZM13.1598 20.31V19.65H12.9598V20.31H13.1598ZM13.0598 19.75H16.7898V19.55H13.0598V19.75ZM16.8898 19.65V17.29H16.6898V19.65H16.8898ZM16.7898 17.19H14.1098V17.39H16.7898V17.19ZM14.2098 17.29V12.81H14.0098V17.29H14.2098ZM14.1098 12.91H20.0998V12.71H14.1098V12.91ZM19.9998 12.81V13.47H20.1998V12.81H19.9998ZM20.0998 13.37H14.8698V13.57H20.0998V13.37ZM14.7698 13.47V16.63H14.9698V13.47H14.7698ZM26.85 14.01V14.11H26.95V14.01H26.85ZM24.87 14.01V13.91H24.7677L24.77 14.0123L24.87 14.01ZM25.06 14.86L24.9684 14.9002L24.9697 14.9029L25.06 14.86ZM25.56 15.62L25.4842 15.6853L25.4862 15.6875L25.56 15.62ZM26.3 16.26L26.2432 16.3423L26.3 16.26ZM27.2 16.74L27.2825 16.7965L27.3532 16.6931L27.2368 16.647L27.2 16.74ZM26.81 17.31L26.7712 17.4022L26.8464 17.4338L26.8925 17.3665L26.81 17.31ZM25.45 16.47L25.3832 16.5444L25.3845 16.5456L25.45 16.47ZM24.49 15.31L24.5762 15.2594L24.4829 15.1005L24.4006 15.2653L24.49 15.31ZM23.54 16.55L23.6084 16.623L23.609 16.6224L23.54 16.55ZM22 17.59L21.924 17.655L21.9745 17.7141L22.0443 17.6796L22 17.59ZM21.53 17.04L21.4886 16.949L21.3677 17.0039L21.454 17.105L21.53 17.04ZM22.54 16.45L22.5994 16.5304L22.6006 16.5296L22.54 16.45ZM23.34 15.7L23.4162 15.7648L23.34 15.7ZM23.87 14.87L23.9615 14.9104L23.87 14.87ZM24.07 14.01L24.17 14.0123L24.1724 13.91H24.07V14.01ZM22.09 14.01H21.99V14.11H22.09V14.01ZM22.09 13.37V13.27H21.99V13.37H22.09ZM24.09 13.37V13.47H24.19V13.37H24.09ZM24.09 12.23V12.13H23.99V12.23H24.09ZM24.86 12.23H24.96V12.13H24.86V12.23ZM24.86 13.37H24.76V13.47H24.86V13.37ZM26.85 13.37H26.95V13.27H26.85V13.37ZM28.08 21.39H27.98V21.49H28.08V21.39ZM28.08 18.83H28.18V18.73H28.08V18.83ZM22.96 18.83H22.86V18.93H22.96V18.83ZM22.96 18.18V18.08H22.86V18.18H22.96ZM28.84 18.18H28.94V18.08H28.84V18.18ZM28.84 21.39V21.49H28.94V21.39H28.84ZM28.1 17.66H28V17.76H28.1V17.66ZM28.1 12.43V12.33H28V12.43H28.1ZM28.86 12.43H28.96V12.33H28.86V12.43ZM28.86 14.62H28.76V14.72H28.86V14.62ZM30.08 14.62H30.18V14.52H30.08V14.62ZM30.08 15.3V15.4H30.18V15.3H30.08ZM28.86 15.3V15.2H28.76V15.3H28.86ZM28.86 17.66V17.76H28.96V17.66H28.86ZM26.85 13.91H24.87V14.11H26.85V13.91ZM24.77 14.0123C24.777 14.3189 24.8433 14.6151 24.9684 14.9002L25.1516 14.8198C25.0367 14.5582 24.9763 14.2878 24.97 14.0077L24.77 14.0123ZM24.9697 14.9029C25.1004 15.1782 25.2722 15.439 25.4842 15.6853L25.6358 15.5547C25.4345 15.321 25.2729 15.0751 25.1503 14.8171L24.9697 14.9029ZM25.4862 15.6875C25.705 15.9268 25.9574 16.145 26.2432 16.3423L26.3568 16.1777C26.0826 15.9883 25.8417 15.7799 25.6338 15.5525L25.4862 15.6875ZM26.2432 16.3423C26.5295 16.54 26.8362 16.7036 27.1632 16.833L27.2368 16.647C26.9238 16.5231 26.6305 16.3667 26.3568 16.1777L26.2432 16.3423ZM27.1175 16.6835L26.7275 17.2535L26.8925 17.3665L27.2825 16.7965L27.1175 16.6835ZM26.8488 17.2178C26.3515 17.0084 25.9072 16.7339 25.5155 16.3944L25.3845 16.5456C25.7928 16.8994 26.2552 17.1849 26.7712 17.4022L26.8488 17.2178ZM25.5168 16.3956C25.1305 16.0486 24.8173 15.6698 24.5762 15.2594L24.4038 15.3606C24.6561 15.7902 24.9828 16.1848 25.3832 16.5444L25.5168 16.3956ZM24.4006 15.2653C24.1934 15.6796 23.8844 16.0839 23.471 16.4776L23.609 16.6224C24.0356 16.2161 24.36 15.7937 24.5794 15.3547L24.4006 15.2653ZM23.4716 16.477C23.0599 16.8626 22.5551 17.204 21.9557 17.5004L22.0443 17.6796C22.6583 17.376 23.1801 17.0241 23.6084 16.623L23.4716 16.477ZM22.076 17.525L21.606 16.975L21.454 17.105L21.924 17.655L22.076 17.525ZM21.5714 17.131C21.9441 16.9616 22.2868 16.7615 22.5994 16.5304L22.4806 16.3696C22.1798 16.5919 21.8493 16.785 21.4886 16.949L21.5714 17.131ZM22.6006 16.5296C22.9124 16.2923 23.1844 16.0374 23.4162 15.7648L23.2638 15.6352C23.0422 15.8959 22.781 16.141 22.4794 16.3704L22.6006 16.5296ZM23.4162 15.7648C23.6484 15.4916 23.8305 15.2069 23.9615 14.9104L23.7785 14.8296C23.6562 15.1065 23.485 15.3751 23.2638 15.6352L23.4162 15.7648ZM23.9615 14.9104C24.0929 14.6129 24.163 14.3133 24.17 14.0123L23.97 14.0077C23.9637 14.28 23.9004 14.5538 23.7785 14.8296L23.9615 14.9104ZM24.07 13.91H22.09V14.11H24.07V13.91ZM22.19 14.01V13.37H21.99V14.01H22.19ZM22.09 13.47H24.09V13.27H22.09V13.47ZM24.19 13.37V12.23H23.99V13.37H24.19ZM24.09 12.33H24.86V12.13H24.09V12.33ZM24.76 12.23V13.37H24.96V12.23H24.76ZM24.86 13.47H26.85V13.27H24.86V13.47ZM26.75 13.37V14.01H26.95V13.37H26.75ZM28.18 21.39V18.83H27.98V21.39H28.18ZM28.08 18.73H22.96V18.93H28.08V18.73ZM23.06 18.83V18.18H22.86V18.83H23.06ZM22.96 18.28H28.84V18.08H22.96V18.28ZM28.74 18.18V21.39H28.94V18.18H28.74ZM28.84 21.29H28.08V21.49H28.84V21.29ZM28.2 17.66V12.43H28V17.66H28.2ZM28.1 12.53H28.86V12.33H28.1V12.53ZM28.76 12.43V14.62H28.96V12.43H28.76ZM28.86 14.72H30.08V14.52H28.86V14.72ZM29.98 14.62V15.3H30.18V14.62H29.98ZM30.08 15.2H28.86V15.4H30.08V15.2ZM28.76 15.3V17.66H28.96V15.3H28.76ZM28.86 17.56H28.1V17.76H28.86V17.56Z" fill="#474863"/>
<defs>
<filter id="filter0_f_103_2448" x="5" y="0" width="34" height="34" filterUnits="userSpaceOnUse" color-interpolation-filters="sRGB">
<feFlood flood-opacity="0" result="BackgroundImageFix"/>
<feBlend mode="normal" in="SourceGraphic" in2="BackgroundImageFix" result="shape"/>
<feGaussianBlur stdDeviation="1" result="effect1_foregroundBlur_103_2448"/>
</filter>
</defs>
</svg>
