<svg width="30" height="30" viewBox="0 0 30 30" fill="none" xmlns="http://www.w3.org/2000/svg">
<rect width="30" height="30" rx="5" fill="#252525"/>
<path d="M22.1307 12.6916L20.1692 7.29163C19.8346 6.38009 18.9692 5.76855 18 5.76855H16.1538C15.5192 5.76855 15 6.28779 15 6.9224C15 7.55702 15.5192 8.07625 16.1538 8.07625H18L19.6846 12.6916H14.1346L13.7192 11.5378H13.823C14.4577 11.5378 14.9769 11.0186 14.9769 10.3839C14.9769 9.74932 14.4577 9.23009 13.823 9.23009H10.3846C9.74996 9.23009 9.23073 9.74932 9.23073 10.3839C9.23073 11.0186 9.74996 11.5378 10.3846 11.5378H11.25L13.35 17.307H12.5769C12.0692 14.7339 9.9115 12.8301 7.2115 12.7032C3.98073 12.5416 1.15381 15.2301 1.15381 18.4609C1.15381 21.6916 3.69227 24.2301 6.92304 24.2301C9.7615 24.2301 12.0577 22.2801 12.5769 19.6147H17.423C17.9307 22.1878 20.0884 24.0916 22.7884 24.2186C26.0192 24.3686 28.8461 21.6916 28.8461 18.4493C28.8461 15.2186 26.3077 12.6801 23.0769 12.6801H22.1307V12.6916ZM10.1769 19.6147C9.69227 21.0339 8.33073 22.0147 6.69227 21.9109C4.97304 21.807 3.54227 20.3532 3.4615 18.6224C3.38073 16.6032 4.92689 14.9993 6.92304 14.9993C8.45765 14.9993 9.71535 15.957 10.1769 17.307H8.07689C7.44227 17.307 6.92304 17.8262 6.92304 18.4609C6.92304 19.0955 7.44227 19.6147 8.07689 19.6147H10.1769ZM17.423 17.307H15.8077L14.9653 14.9993H18.4615C17.9538 15.6686 17.5846 16.4416 17.423 17.307ZM22.9384 21.9224C21.1615 21.8532 19.6615 20.3416 19.6153 18.5532C19.5923 17.4455 20.0653 16.4762 20.8269 15.8301L21.5423 17.7916C21.7615 18.3916 22.4192 18.7032 23.0192 18.4839C23.6192 18.2647 23.9307 17.607 23.7115 17.007L22.9846 15.0109C22.9846 15.0109 22.9846 15.0109 22.9961 14.9993C24.9807 14.9532 26.55 16.4878 26.55 18.4609C26.5384 20.4455 24.9461 21.9916 22.9384 21.9224Z" fill="#F3DB03"/>
</svg>
