<svg width="26" height="27" viewBox="0 0 26 27" fill="none" xmlns="http://www.w3.org/2000/svg">
<rect y="0.5" width="26" height="26" rx="5" fill="#DFDFDD" fill-opacity="0.2"/>
<path d="M19.18 11.5L17.48 6.82C17.19 6.03 16.44 5.5 15.6 5.5H14C13.45 5.5 13 5.95 13 6.5C13 7.05 13.45 7.5 14 7.5H15.6L17.06 11.5H12.25L11.89 10.5H11.98C12.53 10.5 12.98 10.05 12.98 9.5C12.98 8.95 12.53 8.5 11.98 8.5H9C8.45 8.5 8 8.95 8 9.5C8 10.05 8.45 10.5 9 10.5H9.75L11.57 15.5H10.9C10.46 13.27 8.59 11.62 6.25 11.51C3.45 11.37 1 13.7 1 16.5C1 19.3 3.2 21.5 6 21.5C8.46 21.5 10.45 19.81 10.9 17.5H15.1C15.54 19.73 17.41 21.38 19.75 21.49C22.55 21.62 25 19.3 25 16.49C25 13.69 22.8 11.49 20 11.49H19.18V11.5ZM8.82 17.5C8.4 18.73 7.22 19.58 5.8 19.49C4.31 19.4 3.07 18.14 3 16.64C2.93 14.89 4.27 13.5 6 13.5C7.33 13.5 8.42 14.33 8.82 15.5H7C6.45 15.5 6 15.95 6 16.5C6 17.05 6.45 17.5 7 17.5H8.82ZM15.1 15.5H13.7L12.97 13.5H16C15.56 14.08 15.24 14.75 15.1 15.5ZM19.88 19.5C18.34 19.44 17.04 18.13 17 16.58C16.98 15.62 17.39 14.78 18.05 14.22L18.67 15.92C18.86 16.44 19.43 16.71 19.95 16.52C20.47 16.33 20.74 15.76 20.55 15.24L19.92 13.51C19.92 13.51 19.92 13.51 19.93 13.5C21.65 13.46 23.01 14.79 23.01 16.5C23 18.22 21.62 19.56 19.88 19.5Z" fill="#F3DB03"/>
</svg>
