<svg width="30" height="30" viewBox="0 0 30 30" fill="none" xmlns="http://www.w3.org/2000/svg">
<circle cx="15" cy="15" r="14.9" fill="#4FC276" stroke="#4FC276" stroke-width="0.2"/>
<path d="M15 5.33331C13.9182 5.31665 13.9182 7.01598 15 6.99998H17.4V9.10931L12.9157 12.9993L11.3562 8.66665H11.8C12.8818 8.68331 12.8818 6.98398 11.8 6.99998H8.6C7.51824 6.98331 7.51824 8.68265 8.6 8.66665H9.64368L11.0688 12.625C10.3203 12.2373 9.48944 12 8.6 12C5.51664 12 3 14.6215 3 17.8333C3 21.0451 5.51664 23.6666 8.6 23.6666C11.6834 23.6666 14.2 21.0451 14.2 17.8333C14.2 16.7168 13.8795 15.6815 13.3531 14.793L17.8656 10.877L18.6062 12.8106C16.9382 13.8228 15.8 15.6853 15.8 17.8333C15.8 21.0451 18.3166 23.6666 21.4 23.6666C24.4834 23.6666 27 21.0451 27 17.8333C27 14.6215 24.4834 12 21.4 12C20.947 12 20.513 12.0723 20.0906 12.179L19 9.33715V6.16665C19 5.70648 18.6418 5.33331 18.2 5.33331H15ZM8.6 13.6666C9.54768 13.6666 10.4042 14.0198 11.0875 14.5878L8.08752 17.192C7.27008 17.9041 8.292 19.1828 9.11248 18.4745L12.1125 15.8703C12.4136 16.4566 12.6 17.1185 12.6 17.8333C12.6 20.1443 10.8186 22 8.6 22C6.38144 22 4.6 20.1443 4.6 17.8333C4.6 15.5223 6.38128 13.6666 8.6 13.6666ZM21.4 13.6666C23.6186 13.6666 25.4 15.5223 25.4 17.8333C25.4 20.1443 23.6186 22 21.4 22C19.1814 22 17.4 20.1443 17.4 17.8333C17.4 16.3716 18.1149 15.0965 19.2 14.3535L20.6563 18.1425C21.0499 19.181 22.545 18.5593 22.1438 17.524L20.6907 13.7415C20.9214 13.6988 21.157 13.6666 21.4 13.6666Z" fill="#F4F4F4"/>
</svg>
