<svg width="58" height="58" viewBox="0 0 58 58" fill="none" xmlns="http://www.w3.org/2000/svg">
<rect width="58" height="58" rx="13" fill="#4FC276"/>
<path d="M29.5 8.66667C27.9224 8.64334 27.9224 11.0224 29.5 11H33V13.9531L26.4604 19.3991L24.1861 13.3333H24.8333C26.4109 13.3567 26.4109 10.9776 24.8333 11H20.1667C18.5891 10.9767 18.5891 13.3557 20.1667 13.3333H21.6887L23.767 18.875C22.6755 18.3323 21.4638 18 20.1667 18C15.6701 18 12 21.6701 12 26.1667C12 30.6632 15.6701 34.3333 20.1667 34.3333C24.6632 34.3333 28.3333 30.6632 28.3333 26.1667C28.3333 24.6036 27.866 23.1541 27.0983 21.9102L33.679 16.4278L34.7591 19.1349C32.3266 20.552 30.6667 23.1595 30.6667 26.1667C30.6667 30.6632 34.3368 34.3333 38.8333 34.3333C43.3299 34.3333 47 30.6632 47 26.1667C47 21.6701 43.3299 18 38.8333 18C38.1728 18 37.5397 18.1013 36.9237 18.2506L35.3333 14.272V9.83334C35.3333 9.18911 34.8109 8.66667 34.1667 8.66667H29.5ZM20.1667 20.3333C21.5487 20.3333 22.7977 20.8278 23.7943 21.623L19.4193 25.2688C18.2272 26.2658 19.7175 28.056 20.914 27.0643L25.289 23.4185C25.7282 24.2393 26 25.1659 26 26.1667C26 29.4021 23.4021 32 20.1667 32C16.9313 32 14.3333 29.4021 14.3333 26.1667C14.3333 22.9313 16.931 20.3333 20.1667 20.3333ZM38.8333 20.3333C42.0687 20.3333 44.6667 22.9313 44.6667 26.1667C44.6667 29.4021 42.0687 32 38.8333 32C35.5979 32 33 29.4021 33 26.1667C33 24.1203 34.0425 22.3351 35.625 21.2949L37.7488 26.5995C38.3228 28.0534 40.5031 27.1831 39.9181 25.7336L37.799 20.4381C38.1354 20.3784 38.4789 20.3333 38.8333 20.3333Z" fill="#313030"/>
<path d="M16.6594 49.632V44.076H15.7714V49.368H14.2354V39.012H15.7714V42.636H16.6594V38.892H18.2194V49.632H16.6594ZM13.4554 39.528V40.896H10.8994V46.116H11.1034C11.4874 46.116 11.9154 46.108 12.3874 46.092C12.8594 46.068 13.3354 46.024 13.8154 45.96V47.28C13.4234 47.36 12.9874 47.416 12.5074 47.448C12.0274 47.472 11.5594 47.484 11.1034 47.484H9.33944V39.528H13.4554ZM26.9677 49.644V38.892H28.5757V49.644H26.9677ZM23.7397 42.108C23.7397 42.556 23.8117 43.004 23.9557 43.452C24.1077 43.892 24.3077 44.316 24.5557 44.724C24.8117 45.132 25.0997 45.516 25.4197 45.876C25.7477 46.236 26.0877 46.552 26.4397 46.824L25.4797 47.856C24.9197 47.392 24.4197 46.892 23.9797 46.356C23.5397 45.82 23.1917 45.292 22.9357 44.772C22.6797 45.3 22.3317 45.856 21.8917 46.44C21.4517 47.016 20.9237 47.556 20.3077 48.06L19.2037 47.076C19.6117 46.756 19.9877 46.396 20.3317 45.996C20.6837 45.596 20.9877 45.176 21.2437 44.736C21.4997 44.296 21.6997 43.852 21.8437 43.404C21.9877 42.956 22.0597 42.524 22.0597 42.108V39.336H23.7397V42.108ZM36.928 39.252H38.536V45.348H35.572V47.244H39.7V48.612H29.788V47.244H33.916V45.348H30.952V39.252H32.56V40.92H36.928V39.252ZM36.928 43.98V42.288H32.56V43.98H36.928ZM40.2763 48.492V47.124H50.1883V48.492H40.2763ZM43.0483 43.74H49.1443V45.108H41.4403V39.324H48.9643V40.692H43.0483V43.74Z" fill="white"/>
</svg>
