<svg width="30" height="30" viewBox="0 0 30 30" fill="none" xmlns="http://www.w3.org/2000/svg">
<rect width="30" height="30" rx="5" fill="#252525"/>
<path d="M10.01 12H20.01V17H10.01V12ZM20.8 5.8C19 5.09 16.86 5 15 5C13.14 5 11 5.09 9.2 5.8C6.53 6.84 5 9.05 5 11.86V25H25V11.86C25 9.05 23.47 6.84 20.8 5.8ZM21 18.5C21 20.04 19.84 21.29 18.35 21.46L19.5 22.62V23H17.83L16.33 21.5H13.67L12.17 23H10.5V22.62L11.65 21.46C10.16 21.29 9 20.04 9 18.5V12C9 9.37 12 9 15 9C18 9 21 9.37 21 12V18.5Z" fill="#F3033D"/>
</svg>
